    <svg id="decoration">
        <path fill-rule="evenodd" fill="rgb(255, 191, 29)"
              d="M75.000,77.000 L65.000,77.000 L65.000,75.000 L75.000,75.000 L75.000,65.000 L77.000,65.000 L77.000,75.000 L77.000,77.000 L75.000,77.000 ZM75.000,2.000 L65.000,2.000 L65.000,-0.000 L75.000,-0.000 L77.000,-0.000 L77.000,2.000 L77.000,12.000 L75.000,12.000 L75.000,2.000 ZM63.679,36.703 C63.023,37.164 62.130,37.648 61.177,38.105 L59.689,54.346 C59.628,55.017 58.768,55.310 58.309,54.813 L47.486,43.116 L50.937,57.856 C51.076,58.452 50.484,58.986 49.903,58.789 L44.093,56.818 L39.927,61.102 C39.496,61.546 38.718,61.329 38.577,60.730 L35.113,45.929 C35.079,45.936 30.552,61.434 30.552,61.434 C30.374,62.047 29.543,62.205 29.152,61.697 C29.152,61.697 19.039,48.525 19.023,48.499 C17.235,48.684 15.502,48.823 13.845,48.913 C13.831,48.913 13.816,48.914 13.801,48.914 C13.381,48.914 13.029,48.586 13.006,48.162 C12.982,47.723 13.319,47.348 13.759,47.325 C19.983,46.988 27.379,45.938 35.147,44.288 C42.535,42.719 49.750,40.725 56.012,38.522 C57.041,38.160 58.520,37.579 59.900,36.947 C60.014,36.847 60.156,36.779 60.310,36.756 C61.269,36.302 62.151,35.832 62.759,35.403 C63.120,35.150 63.617,35.236 63.871,35.595 C64.125,35.953 64.039,36.449 63.679,36.703 ZM20.868,48.295 L29.458,59.479 L33.280,46.304 C29.022,47.152 24.825,47.827 20.868,48.295 ZM36.673,45.595 L39.799,58.949 L43.299,55.349 C43.514,55.129 43.837,55.051 44.129,55.150 L49.057,56.822 L45.898,43.327 C42.862,44.158 39.764,44.918 36.673,45.595 ZM56.542,40.022 C54.131,40.870 51.612,41.678 49.029,42.438 L58.264,52.419 L59.506,38.861 C58.354,39.353 57.265,39.768 56.542,40.022 ZM42.651,53.314 C42.494,53.511 42.261,53.615 42.026,53.615 C41.852,53.615 41.677,53.558 41.531,53.442 C41.186,53.170 41.128,52.670 41.401,52.325 L43.740,49.387 C44.013,49.043 44.515,48.985 44.860,49.258 C45.205,49.531 45.263,50.031 44.990,50.375 L42.651,53.314 ZM41.375,50.063 C41.218,50.261 40.985,50.364 40.750,50.364 C40.576,50.364 40.401,50.308 40.255,50.192 C39.910,49.919 39.852,49.419 40.126,49.075 L42.464,46.136 C42.737,45.793 43.239,45.735 43.584,46.008 C43.930,46.281 43.987,46.781 43.714,47.125 L41.375,50.063 ZM63.871,35.595 C63.617,35.236 64.125,35.953 63.871,35.595 ZM29.686,37.246 C29.686,37.714 29.304,38.094 28.835,38.094 C28.365,38.094 27.983,37.714 27.983,37.246 C27.983,36.778 28.365,36.397 28.835,36.397 C29.304,36.397 29.686,36.778 29.686,37.246 ZM19.197,43.294 C19.197,43.762 18.815,44.142 18.345,44.142 C17.876,44.142 17.494,43.762 17.494,43.294 C17.494,42.826 17.876,42.445 18.345,42.445 C18.815,42.445 19.197,42.826 19.197,43.294 ZM61.701,31.038 C61.347,31.067 60.993,31.080 60.640,31.080 C60.124,31.080 59.608,31.052 59.092,31.004 L58.239,35.227 C58.151,35.660 57.711,35.943 57.279,35.845 C56.863,35.750 56.590,35.331 56.675,34.913 L57.505,30.800 C56.849,30.695 56.190,30.571 55.526,30.440 C53.157,29.975 50.710,29.421 48.225,28.793 L46.385,39.073 C46.309,39.499 45.888,39.792 45.460,39.716 C45.032,39.640 44.738,39.220 44.815,38.793 L46.676,28.393 C46.429,28.327 46.181,28.262 45.933,28.195 L34.369,40.671 C33.906,41.171 33.041,40.870 32.988,40.194 C32.988,40.194 31.826,24.829 31.759,23.736 C31.557,23.664 31.356,23.591 31.155,23.517 L24.893,37.419 C24.641,37.978 23.846,38.045 23.503,37.537 L20.081,32.459 L14.162,33.350 C13.550,33.442 13.061,32.802 13.315,32.238 L19.414,18.699 C17.850,17.976 16.347,17.241 14.920,16.501 C14.529,16.299 14.377,15.818 14.580,15.429 C14.784,15.039 15.265,14.888 15.656,15.091 C26.772,20.855 42.543,26.268 55.835,28.880 C57.879,29.282 59.722,29.602 61.573,29.453 C62.012,29.419 62.396,29.744 62.432,30.182 C62.467,30.620 62.140,31.003 61.701,31.038 ZM20.865,19.360 L15.370,31.560 L20.343,30.812 C20.648,30.765 20.952,30.899 21.124,31.154 L24.026,35.461 L29.657,22.962 C26.607,21.816 23.650,20.607 20.865,19.360 ZM33.335,24.296 L34.436,38.256 L44.202,27.720 C40.576,26.705 36.914,25.550 33.335,24.296 ZM20.465,28.461 C20.076,28.461 19.735,28.177 19.677,27.782 C19.612,27.347 19.913,26.943 20.349,26.879 L24.072,26.332 C24.508,26.268 24.913,26.568 24.977,27.003 C25.042,27.437 24.741,27.841 24.305,27.905 L20.582,28.453 C20.543,28.458 20.503,28.461 20.465,28.461 ZM21.766,25.221 C21.377,25.221 21.037,24.937 20.978,24.542 C20.914,24.107 21.215,23.703 21.651,23.639 L25.373,23.092 C25.810,23.028 26.215,23.328 26.279,23.762 C26.343,24.197 26.042,24.601 25.606,24.665 L21.884,25.212 C21.844,25.218 21.805,25.221 21.766,25.221 ZM56.388,23.404 C54.828,23.404 53.559,22.139 53.559,20.584 C53.559,19.030 54.828,17.765 56.388,17.765 C57.948,17.765 59.217,19.030 59.217,20.584 C59.217,22.139 57.948,23.404 56.388,23.404 ZM56.388,19.355 C55.708,19.355 55.155,19.906 55.155,20.584 C55.155,21.262 55.708,21.814 56.388,21.814 C57.068,21.814 57.622,21.262 57.622,20.584 C57.622,19.906 57.068,19.355 56.388,19.355 ZM46.039,20.204 C45.570,20.204 45.188,19.823 45.188,19.355 C45.188,18.887 45.570,18.507 46.039,18.507 C46.509,18.507 46.891,18.887 46.891,19.355 C46.891,19.823 46.509,20.204 46.039,20.204 ZM0.000,77.000 L0.000,75.000 L0.000,65.000 L2.000,65.000 L2.000,75.000 L12.000,75.000 L12.000,77.000 L2.000,77.000 L0.000,77.000 ZM2.000,12.000 L0.000,12.000 L0.000,2.000 L0.000,-0.000 L2.000,-0.000 L12.000,-0.000 L12.000,2.000 L2.000,2.000 L2.000,12.000 Z"/>
    </svg>