    <svg id="employees">
        <path fill-rule="evenodd" fill="rgb(250, 185, 30)"
              d="M75.000,77.000 L65.000,77.000 L65.000,75.000 L75.000,75.000 L75.000,65.000 L77.000,65.000 L77.000,75.000 L77.000,77.000 L75.000,77.000 ZM75.000,2.000 L65.000,2.000 L65.000,-0.000 L75.000,-0.000 L77.000,-0.000 L77.000,2.000 L77.000,12.000 L75.000,12.000 L75.000,2.000 ZM63.229,52.930 L51.331,60.339 C51.237,60.402 48.408,62.239 42.032,62.239 C36.567,62.239 28.689,57.896 28.355,57.710 C28.351,57.710 26.697,56.938 23.485,56.938 C22.996,56.938 22.602,56.542 22.602,56.055 C22.602,55.567 22.996,55.171 23.485,55.171 C27.184,55.171 29.099,56.108 29.179,56.148 C29.290,56.208 37.025,60.472 42.032,60.472 C47.807,60.472 50.354,58.866 50.380,58.850 L62.321,51.415 C62.754,51.164 63.047,50.784 63.169,50.328 C63.290,49.872 63.229,49.395 62.993,48.986 C62.505,48.142 61.421,47.852 60.580,48.339 L50.367,53.315 C48.423,54.288 46.583,54.288 42.915,54.288 C39.351,54.288 34.158,53.429 33.938,53.392 C33.457,53.311 33.132,52.856 33.212,52.374 C33.292,51.895 33.747,51.570 34.228,51.649 C34.280,51.657 39.498,52.520 42.916,52.520 C46.411,52.520 48.006,52.520 49.586,51.730 L59.751,46.780 C60.513,46.336 61.465,46.211 62.377,46.457 C63.289,46.700 64.050,47.285 64.523,48.103 C64.994,48.920 65.120,49.872 64.875,50.785 C64.631,51.696 64.046,52.459 63.229,52.930 ZM55.583,14.882 C57.347,15.508 58.719,16.881 59.343,18.649 C59.506,19.108 59.265,19.613 58.806,19.776 C58.708,19.810 58.609,19.827 58.510,19.827 C58.148,19.827 57.807,19.601 57.679,19.238 C57.238,17.995 56.234,16.988 54.992,16.548 C54.532,16.384 54.292,15.879 54.455,15.419 C54.618,14.960 55.122,14.720 55.583,14.882 ZM47.755,40.926 C47.623,40.998 47.477,41.034 47.332,41.034 C47.186,41.034 47.041,40.998 46.909,40.926 C36.858,35.441 31.434,26.418 31.434,20.713 C31.434,15.353 35.793,10.993 41.149,10.993 C42.501,10.993 43.810,11.266 45.040,11.805 C45.487,12.001 45.691,12.521 45.495,12.968 C45.299,13.415 44.779,13.619 44.332,13.423 C43.326,12.983 42.256,12.761 41.149,12.761 C36.767,12.761 33.200,16.327 33.200,20.713 C33.200,25.900 38.476,34.142 47.332,39.140 C56.188,34.142 61.463,25.900 61.463,20.713 C61.463,16.327 57.898,12.761 53.514,12.761 C50.435,12.761 47.606,14.565 46.305,17.358 C46.099,17.799 45.573,17.992 45.131,17.785 C44.689,17.579 44.497,17.054 44.704,16.611 C46.293,13.198 49.752,10.993 53.514,10.993 C58.872,10.993 63.230,15.353 63.230,20.713 C63.230,26.418 57.807,35.441 47.755,40.926 ZM40.266,48.102 L45.565,48.102 C47.637,48.102 48.722,49.129 48.839,49.245 C49.184,49.590 49.184,50.149 48.839,50.494 C48.666,50.667 48.441,50.753 48.215,50.753 C47.989,50.753 47.763,50.667 47.590,50.494 C47.573,50.479 46.906,49.870 45.565,49.870 L40.266,49.870 C38.646,49.870 36.816,48.497 34.878,47.042 C33.333,45.883 31.580,44.568 30.551,44.568 L23.485,44.568 C22.996,44.568 22.602,44.173 22.602,43.685 C22.602,43.197 22.996,42.801 23.485,42.801 L30.551,42.801 C32.170,42.801 34.000,44.174 35.938,45.629 C37.484,46.788 39.235,48.102 40.266,48.102 ZM16.419,58.264 C16.419,58.994 15.825,59.589 15.094,59.589 C14.364,59.589 13.770,58.994 13.770,58.264 C13.770,57.533 14.364,56.938 15.094,56.938 C15.825,56.938 16.419,57.533 16.419,58.264 ZM18.186,64.006 L12.886,64.006 C12.398,64.006 12.003,63.610 12.003,63.123 C12.003,62.635 12.398,62.239 12.886,62.239 L18.186,62.239 C18.672,62.239 19.069,61.843 19.069,61.356 L19.069,41.918 C19.069,41.431 18.672,41.034 18.186,41.034 L12.886,41.034 C12.398,41.034 12.003,40.638 12.003,40.151 C12.003,39.663 12.398,39.267 12.886,39.267 L18.186,39.267 C19.646,39.267 20.835,40.456 20.835,41.918 L20.835,61.356 C20.835,62.817 19.646,64.006 18.186,64.006 ZM-0.000,77.000 L-0.000,75.000 L-0.000,65.000 L2.000,65.000 L2.000,75.000 L12.000,75.000 L12.000,77.000 L2.000,77.000 L-0.000,77.000 ZM2.000,12.000 L-0.000,12.000 L-0.000,2.000 L-0.000,-0.000 L2.000,-0.000 L12.000,-0.000 L12.000,2.000 L2.000,2.000 L2.000,12.000 Z"/>
    </svg>