    <svg id="halls">
        <path fill-rule="evenodd" fill="rgb(255, 191, 29)"
              d="M75.000,77.000 L65.000,77.000 L65.000,75.000 L75.000,75.000 L75.000,65.000 L77.000,65.000 L77.000,75.000 L77.000,77.000 L75.000,77.000 ZM75.000,2.000 L65.000,2.000 L65.000,-0.000 L75.000,-0.000 L77.000,-0.000 L77.000,2.000 L77.000,12.000 L75.000,12.000 L75.000,2.000 ZM62.000,64.000 L60.000,64.000 L60.000,62.000 L54.000,62.000 L56.455,42.756 L56.455,39.915 C47.181,33.553 42.562,27.467 40.316,23.458 C39.483,21.971 38.904,20.654 38.501,19.551 C38.098,20.654 37.519,21.971 36.686,23.458 C34.439,27.467 29.820,33.554 20.545,39.916 L20.545,42.755 L23.000,62.000 L18.000,62.000 L18.000,64.000 L16.000,64.000 L16.000,62.000 L13.000,62.000 L15.709,42.756 L15.709,38.527 L15.709,34.593 C15.709,29.249 17.623,24.064 21.099,19.992 C24.307,16.233 28.670,13.613 33.473,12.537 C33.456,12.404 33.446,12.260 33.446,12.103 C33.446,10.392 34.835,9.000 36.541,9.000 C37.373,9.000 37.974,9.286 38.498,9.680 C39.008,9.300 39.629,9.000 40.459,9.000 C42.169,9.000 43.559,10.392 43.560,12.103 C43.560,12.259 43.547,12.401 43.529,12.536 C48.332,13.611 52.696,16.231 55.905,19.990 C59.382,24.062 61.297,29.248 61.297,34.593 L61.297,42.805 L64.000,62.000 L62.000,62.000 L62.000,64.000 ZM15.063,60.030 L21.206,60.030 L18.807,43.715 L17.448,43.715 L15.063,60.030 ZM17.000,42.000 L19.000,42.000 L19.000,40.000 L17.000,40.000 L17.000,42.000 ZM34.212,14.240 C24.517,16.235 17.543,24.697 17.543,34.593 L17.543,38.527 L19.342,38.527 C28.355,32.377 32.836,26.536 35.008,22.706 C36.332,20.371 36.981,18.483 37.296,17.270 C36.420,16.522 34.965,15.222 34.212,14.240 ZM40.459,10.819 C39.976,10.819 39.647,11.051 39.136,11.539 L38.507,12.138 L37.872,11.546 C37.287,11.001 37.013,10.819 36.541,10.819 C35.834,10.819 35.281,11.383 35.281,12.103 C35.281,12.452 35.364,12.620 35.480,12.852 L35.489,12.870 C35.763,13.420 37.193,14.771 38.412,15.821 L38.501,15.827 L38.592,15.821 C39.922,14.681 41.270,13.376 41.505,12.884 L41.521,12.850 C41.631,12.622 41.725,12.425 41.725,12.103 C41.725,11.383 41.169,10.819 40.459,10.819 ZM59.462,34.592 C59.462,24.696 52.489,16.235 42.793,14.240 C42.044,15.224 40.585,16.523 39.706,17.272 C40.021,18.485 40.670,20.371 41.994,22.706 C44.166,26.536 48.647,32.377 57.660,38.527 L59.462,38.527 L59.462,34.592 ZM60.000,40.000 L58.000,40.000 L58.000,42.000 L60.000,42.000 L60.000,40.000 ZM59.552,43.715 L58.194,43.715 L55.809,60.030 L61.952,60.030 L59.552,43.715 ZM-0.000,77.000 L-0.000,75.000 L-0.000,65.000 L2.000,65.000 L2.000,75.000 L12.000,75.000 L12.000,77.000 L2.000,77.000 L-0.000,77.000 ZM2.000,12.000 L-0.000,12.000 L-0.000,2.000 L-0.000,-0.000 L2.000,-0.000 L12.000,-0.000 L12.000,2.000 L2.000,2.000 L2.000,12.000 ZM49.000,49.000 L42.000,49.000 L42.037,49.651 C42.037,51.269 40.505,52.598 39.000,53.000 L39.000,63.000 L42.000,63.000 L42.026,65.015 L38.000,65.000 L33.975,65.015 L34.000,63.000 L37.000,63.000 L37.000,53.000 C35.495,52.598 33.953,51.418 34.000,49.000 L27.000,49.000 L27.000,47.000 L49.000,47.000 L49.000,49.000 ZM40.000,49.000 L36.000,49.000 L36.000,50.000 C36.000,50.929 37.063,51.000 38.000,51.000 C38.937,51.000 40.000,50.929 40.000,50.000 L40.000,49.000 Z"/>
    </svg>