    <svg id="photo">
        <path fill-rule="evenodd" fill="rgb(250, 185, 30)"
              d="M75.000,77.000 L65.000,77.000 L65.000,75.000 L75.000,75.000 L75.000,65.000 L77.000,65.000 L77.000,75.000 L77.000,77.000 L75.000,77.000 ZM75.000,2.000 L65.000,2.000 L65.000,-0.000 L75.000,-0.000 L77.000,-0.000 L77.000,2.000 L77.000,12.000 L75.000,12.000 L75.000,2.000 ZM52.196,24.856 C51.729,24.856 51.351,24.477 51.351,24.011 L51.351,16.840 L27.346,16.840 L27.346,28.742 C27.346,29.209 26.968,29.587 26.501,29.587 C26.034,29.587 25.656,29.208 25.656,28.742 L25.656,15.995 C25.656,15.528 26.034,15.150 26.501,15.150 L52.196,15.150 C52.663,15.150 53.042,15.528 53.042,15.995 L53.042,24.011 C53.042,24.477 52.663,24.856 52.196,24.856 ZM42.350,41.314 C42.350,41.812 41.945,42.216 41.448,42.216 C40.951,42.216 40.546,41.812 40.546,41.314 C40.546,40.817 40.951,40.413 41.448,40.413 C41.945,40.413 42.350,40.817 42.350,41.314 ZM30.301,40.171 C34.486,40.171 37.890,43.573 37.890,47.755 C37.890,51.938 34.486,55.340 30.301,55.340 C26.117,55.340 22.713,51.938 22.713,47.755 C22.713,43.573 26.117,40.171 30.301,40.171 ZM30.301,53.650 C33.553,53.650 36.199,51.006 36.199,47.755 C36.199,44.505 33.553,41.860 30.301,41.860 C27.049,41.860 24.403,44.505 24.403,47.755 C24.403,51.006 27.049,53.650 30.301,53.650 ZM37.757,34.068 L37.757,34.756 C37.757,35.703 38.528,36.474 39.476,36.474 L42.297,36.474 C44.474,36.474 46.245,38.244 46.245,40.420 L46.245,55.904 C46.245,58.080 44.474,59.850 42.297,59.850 L18.306,59.850 C16.129,59.850 14.358,58.080 14.358,55.904 L14.358,48.924 C14.358,48.457 14.736,48.079 15.203,48.079 C15.670,48.079 16.048,48.457 16.048,48.924 L16.048,55.904 C16.048,57.148 17.061,58.160 18.306,58.160 L42.297,58.160 C43.542,58.160 44.555,57.148 44.555,55.904 L44.555,40.420 C44.555,39.175 43.542,38.164 42.297,38.164 L39.476,38.164 C37.596,38.164 36.066,36.635 36.066,34.756 L36.066,34.068 C36.066,33.813 35.858,33.604 35.602,33.604 L25.001,33.604 C24.745,33.604 24.537,33.813 24.537,34.068 L24.537,34.756 C24.537,36.635 23.007,38.164 21.127,38.164 L18.306,38.164 C17.061,38.164 16.048,39.175 16.048,40.420 L16.048,43.792 C16.048,44.258 15.670,44.637 15.203,44.637 C14.736,44.637 14.358,44.258 14.358,43.792 L14.358,40.420 C14.358,38.244 16.129,36.474 18.306,36.474 L21.127,36.474 C22.075,36.474 22.846,35.703 22.846,34.756 L22.846,34.068 C22.846,32.881 23.813,31.914 25.001,31.914 L35.602,31.914 C36.790,31.914 37.757,32.881 37.757,34.068 ZM-0.000,77.000 L-0.000,75.000 L-0.000,65.000 L2.000,65.000 L2.000,75.000 L12.000,75.000 L12.000,77.000 L2.000,77.000 L-0.000,77.000 ZM2.000,12.000 L-0.000,12.000 L-0.000,2.000 L-0.000,-0.000 L2.000,-0.000 L12.000,-0.000 L12.000,2.000 L2.000,2.000 L2.000,12.000 ZM48.559,45.191 L54.206,47.376 L58.904,35.246 L43.276,29.200 L41.397,34.398 C41.239,34.837 40.754,35.064 40.315,34.906 C39.876,34.747 39.649,34.263 39.807,33.824 L41.979,27.813 C42.056,27.600 42.217,27.426 42.424,27.332 C42.631,27.237 42.867,27.230 43.079,27.312 L60.303,33.975 C60.512,34.056 60.680,34.217 60.771,34.422 C60.861,34.627 60.867,34.859 60.786,35.068 L55.478,48.774 C55.311,49.207 54.796,49.417 54.384,49.257 L47.948,46.767 C47.513,46.599 47.297,46.110 47.465,45.675 C47.634,45.239 48.123,45.023 48.559,45.191 ZM30.073,29.812 C29.606,29.812 29.228,29.434 29.228,28.967 L29.228,19.580 C29.228,19.113 29.606,18.735 30.073,18.735 L48.542,18.735 C49.008,18.735 49.387,19.113 49.387,19.580 L49.387,22.959 C49.387,23.426 49.008,23.804 48.542,23.804 C48.075,23.804 47.696,23.426 47.696,22.959 L47.696,20.425 L30.918,20.425 L30.918,28.967 C30.918,29.434 30.540,29.812 30.073,29.812 ZM48.802,53.220 L54.943,55.595 L63.607,33.221 L41.221,24.561 L39.169,29.860 C39.000,30.295 38.511,30.511 38.075,30.343 C37.640,30.174 37.424,29.685 37.592,29.250 L39.950,23.163 C40.118,22.728 40.608,22.512 41.043,22.680 L65.006,31.950 C65.441,32.119 65.658,32.608 65.489,33.043 L56.214,56.993 C56.084,57.328 55.765,57.533 55.426,57.533 C55.324,57.533 55.221,57.515 55.121,57.476 L48.192,54.796 C47.757,54.627 47.540,54.138 47.709,53.703 C47.878,53.268 48.368,53.051 48.802,53.220 Z"/>
    </svg>