    <svg id="tech">
        <path fill-rule="evenodd" fill="rgb(255, 191, 29)"
              d="M75.000,77.000 L65.000,77.000 L65.000,75.000 L75.000,75.000 L75.000,65.000 L77.000,65.000 L77.000,75.000 L77.000,77.000 L75.000,77.000 ZM75.000,2.000 L65.000,2.000 L65.000,-0.000 L75.000,-0.000 L77.000,-0.000 L77.000,2.000 L77.000,12.000 L75.000,12.000 L75.000,2.000 ZM65.725,16.790 C66.077,17.135 66.077,17.693 65.725,18.039 L65.089,18.664 C64.914,18.836 64.684,18.922 64.453,18.922 C64.223,18.922 63.993,18.836 63.817,18.664 C63.465,18.318 63.465,17.760 63.817,17.414 L64.453,16.790 C64.805,16.444 65.374,16.444 65.725,16.790 ZM62.127,21.573 C61.951,21.745 61.721,21.831 61.490,21.831 C61.260,21.831 61.030,21.745 60.854,21.573 C60.502,21.227 60.502,20.669 60.854,20.323 L61.490,19.699 C61.842,19.353 62.411,19.353 62.763,19.699 C63.114,20.044 63.114,20.603 62.763,20.948 L62.127,21.573 ZM65.989,29.782 C65.989,30.163 65.742,30.500 65.374,30.621 L60.403,32.248 L58.744,37.129 C58.622,37.490 58.279,37.733 57.891,37.733 C57.504,37.733 57.160,37.490 57.038,37.129 L55.380,32.248 L50.409,30.621 C50.041,30.500 49.794,30.163 49.794,29.782 C49.794,29.401 50.041,29.064 50.409,28.944 L55.380,27.317 L57.038,22.436 C57.160,22.074 57.504,21.831 57.891,21.831 C58.279,21.831 58.622,22.074 58.744,22.436 L60.403,27.317 L65.374,28.944 C65.742,29.064 65.989,29.401 65.989,29.782 ZM59.407,28.854 C59.138,28.765 58.926,28.559 58.838,28.295 L57.892,25.508 L56.945,28.295 C56.857,28.559 56.645,28.765 56.376,28.854 L53.539,29.782 L56.376,30.711 C56.645,30.799 56.857,31.006 56.945,31.270 L57.892,34.056 L58.838,31.270 C58.926,31.006 59.138,30.799 59.407,30.711 L62.244,29.782 L59.407,28.854 ZM53.062,14.998 C52.936,15.368 52.586,15.602 52.209,15.602 C52.114,15.602 52.019,15.588 51.924,15.556 C51.453,15.403 51.198,14.902 51.355,14.439 L51.640,13.601 C51.798,13.138 52.303,12.887 52.778,13.042 C53.249,13.197 53.504,13.697 53.346,14.160 L53.062,14.998 ZM51.850,18.568 L51.243,20.354 C51.118,20.724 50.768,20.958 50.391,20.958 C50.297,20.958 50.201,20.943 50.106,20.912 C49.635,20.757 49.380,20.257 49.538,19.794 L50.144,18.009 C50.301,17.547 50.807,17.294 51.281,17.450 C51.753,17.605 52.007,18.105 51.850,18.568 ZM50.032,23.923 L49.747,24.761 C49.622,25.131 49.271,25.365 48.894,25.365 C48.801,25.365 48.704,25.351 48.610,25.320 C48.138,25.165 47.884,24.665 48.041,24.203 L48.326,23.364 C48.483,22.901 48.989,22.648 49.464,22.806 C49.934,22.960 50.189,23.461 50.032,23.923 ZM47.095,30.668 L23.702,30.666 C22.214,30.666 21.002,31.855 21.002,33.316 L21.002,52.752 C21.002,54.213 22.214,55.402 23.702,55.402 L41.696,55.402 C42.194,55.402 42.596,55.798 42.596,56.285 C42.596,56.773 42.194,57.169 41.696,57.169 L23.702,57.169 C21.221,57.169 19.203,55.187 19.203,52.752 L19.203,33.316 C19.203,30.880 21.221,28.899 23.702,28.899 L47.095,28.902 C47.592,28.902 47.994,29.298 47.994,29.785 C47.994,30.273 47.591,30.668 47.095,30.668 ZM39.897,25.365 C39.399,25.365 38.997,24.969 38.997,24.482 L38.997,23.598 C38.997,23.111 39.399,22.715 39.897,22.715 C40.394,22.715 40.797,23.111 40.797,23.598 L40.797,24.482 C40.797,24.969 40.394,25.365 39.897,25.365 ZM39.897,20.948 C39.399,20.948 38.997,20.552 38.997,20.064 L38.997,18.298 C38.997,17.810 39.399,17.414 39.897,17.414 C40.394,17.414 40.797,17.810 40.797,18.298 L40.797,20.064 C40.797,20.552 40.394,20.948 39.897,20.948 ZM39.897,15.647 C39.399,15.647 38.997,15.252 38.997,14.764 L38.997,13.880 C38.997,13.393 39.399,12.997 39.897,12.997 C40.394,12.997 40.797,13.393 40.797,13.880 L40.797,14.764 C40.797,15.252 40.394,15.647 39.897,15.647 ZM31.184,25.320 C31.090,25.350 30.993,25.365 30.900,25.365 C30.523,25.365 30.172,25.131 30.047,24.761 L29.761,23.923 C29.605,23.461 29.859,22.960 30.330,22.806 C30.801,22.651 31.312,22.901 31.468,23.364 L31.753,24.203 C31.910,24.666 31.655,25.166 31.184,25.320 ZM29.688,20.912 C29.593,20.943 29.497,20.958 29.403,20.958 C29.026,20.958 28.675,20.724 28.550,20.354 L27.944,18.568 C27.786,18.105 28.041,17.605 28.513,17.450 C28.987,17.297 29.494,17.547 29.650,18.009 L30.256,19.794 C30.414,20.257 30.159,20.757 29.688,20.912 ZM27.870,15.556 C27.776,15.587 27.679,15.602 27.585,15.602 C27.208,15.602 26.858,15.368 26.732,14.998 L26.448,14.160 C26.290,13.697 26.545,13.197 27.016,13.042 C27.486,12.888 27.997,13.138 28.154,13.601 L28.439,14.439 C28.595,14.902 28.341,15.403 27.870,15.556 ZM20.103,25.365 C19.872,25.365 19.642,25.279 19.467,25.106 L18.830,24.482 C18.479,24.136 18.479,23.578 18.830,23.233 C19.182,22.887 19.751,22.887 20.103,23.233 L20.739,23.857 C21.091,24.203 21.091,24.761 20.739,25.106 C20.563,25.279 20.333,25.365 20.103,25.365 ZM17.096,22.414 C16.866,22.414 16.635,22.327 16.460,22.155 L15.275,20.990 C14.923,20.646 14.923,20.087 15.275,19.741 C15.626,19.397 16.195,19.397 16.547,19.741 L17.732,20.906 C18.084,21.250 18.084,21.809 17.732,22.155 C17.557,22.327 17.326,22.414 17.096,22.414 ZM13.541,18.922 C13.311,18.922 13.080,18.836 12.905,18.664 L12.269,18.039 C11.917,17.693 11.917,17.135 12.269,16.790 C12.621,16.444 13.189,16.444 13.541,16.790 L14.177,17.414 C14.529,17.760 14.529,18.318 14.177,18.664 C14.002,18.836 13.771,18.922 13.541,18.922 ZM-0.000,77.000 L-0.000,75.000 L-0.000,65.000 L2.000,65.000 L2.000,75.000 L12.000,75.000 L12.000,77.000 L2.000,77.000 L-0.000,77.000 ZM2.000,12.000 L-0.000,12.000 L-0.000,2.000 L-0.000,-0.000 L2.000,-0.000 L12.000,-0.000 L12.000,2.000 L2.000,2.000 L2.000,12.000 ZM32.699,58.936 C33.197,58.936 33.599,59.332 33.599,59.819 L33.599,65.120 C33.599,65.607 33.197,66.003 32.699,66.003 C32.201,66.003 31.799,65.607 31.799,65.120 L31.799,59.819 C31.799,59.332 32.201,58.936 32.699,58.936 ZM25.501,51.868 C25.004,51.868 24.601,51.472 24.601,50.985 L24.601,35.083 C24.601,34.595 25.004,34.199 25.501,34.199 L52.493,34.199 C52.991,34.199 53.393,34.595 53.393,35.083 L53.393,50.985 C53.393,51.472 52.991,51.868 52.493,51.868 L25.501,51.868 ZM51.593,35.966 L26.401,35.966 L26.401,50.101 L51.593,50.101 L51.593,35.966 ZM30.900,37.733 C31.397,37.733 31.799,38.129 31.799,38.617 L31.799,47.451 C31.799,47.939 31.397,48.334 30.900,48.334 C30.402,48.334 30.000,47.939 30.000,47.451 L30.000,38.617 C30.000,38.129 30.402,37.733 30.900,37.733 ZM36.298,37.733 C36.795,37.733 37.198,38.129 37.198,38.617 L37.198,47.451 C37.198,47.939 36.796,48.334 36.298,48.334 C35.800,48.334 35.398,47.939 35.398,47.451 L35.398,38.617 C35.398,38.129 35.800,37.733 36.298,37.733 ZM41.696,37.733 C42.194,37.733 42.596,38.129 42.596,38.617 L42.596,47.451 C42.596,47.939 42.194,48.334 41.696,48.334 C41.199,48.334 40.797,47.939 40.797,47.451 L40.797,38.617 C40.797,38.129 41.199,37.733 41.696,37.733 ZM47.095,37.733 C47.592,37.733 47.994,38.129 47.994,38.617 L47.994,47.451 C47.994,47.939 47.592,48.334 47.095,48.334 C46.597,48.334 46.195,47.939 46.195,47.451 L46.195,38.617 C46.195,38.129 46.597,37.733 47.095,37.733 ZM45.295,55.402 L54.293,55.402 C55.781,55.402 56.992,54.213 56.992,52.752 L56.992,40.384 C56.992,39.896 57.394,39.500 57.892,39.500 C58.389,39.500 58.791,39.896 58.791,40.384 L58.791,52.752 C58.791,55.187 56.773,57.169 54.293,57.169 L46.195,57.169 L46.195,65.120 C46.195,65.607 45.793,66.003 45.295,66.003 C44.798,66.003 44.396,65.607 44.396,65.120 L44.396,56.285 C44.396,55.798 44.798,55.402 45.295,55.402 Z"/>
    </svg>